:FULLY-SPECIFIED
:FORCE-ALL-JOINTS-BE-3DOF
:DEGREES
2650
root -2.0027 15.0953 -28.5345 162.22 -75.5978 -166.732
lfemur -35.4949 27.0071 -3.4221
ltibia 59.1385 -0 0
lfoot 11.3255 12.674 -0.205543
ltoes -0.609057 0 0
rfemur -34.381 -21.3201 20.5898
rtibia 70.5376 -0 0
rfoot -23.1815 -12.3502 -0.0660841
rtoes -6.24249 0 0
lowerback 16.3318 4.01465 0.795779
upperback -0.864508 5.60174 1.34258
thorax -9.8866 2.65736 -0.280914
lowerneck -2.96136 7.80465 0.780561
upperneck 6.59638 10.2214 1.85825
head 2.68667 5.16262 0.84195
lclavicle -5.8716e-14 -9.94489e-15 -2.55426e-31
lhumerus 18.1662 -25.5429 74.5292
lradius 115.105 -0 0
lwrist 1.33584 0 0
lhand -36.1608 32.94 0.551736
lfingers 7.12502 -0 0
lthumb -9.26097 62.587 0.547522
rclavicle -5.8716e-14 -9.94489e-15 -2.55426e-31
rhumerus -25.9136 51.5748 -84.2904
rradius 105.627 -0 0
rwrist -50.5656 0 0
rhand -8.93192 -24.1868 0.272638
rfingers 7.12502 -0 0
rthumb 16.9905 -53.1091 0.336289
2651
root -2.16257 15.0959 -28.4962 163.956 -73.9444 -168.659
lfemur -35.6318 27.3667 -3.22126
ltibia 57.388 -0 0
lfoot 12.3764 12.5552 -0.19416
ltoes 0.515566 -0 0
rfemur -33.862 -20.9714 20.35
rtibia 70.629 -0 0
rfoot -23.5566 -12.2435 -0.0624404
rtoes -6.31898 0 0
lowerback 16.2912 4.21049 1.01145
upperback -0.870017 5.8942 1.24833
thorax -9.85232 2.78334 -0.575778
lowerneck -2.91053 8.08453 1.00016
upperneck 6.7669 10.5938 1.69404
head 2.74677 5.34664 0.767208
lclavicle -6.06426e-14 -1.00252e-14 -2.41352e-31
lhumerus 16.3755 -23.3214 75.2326
lradius 114.685 -0 0
lwrist -0.907691 0 0
lhand -36.7101 32.3304 0.521242
lfingers 7.12502 -0 0
lthumb -9.79115 61.9603 0.517262
rclavicle -6.06426e-14 -1.00252e-14 -2.41352e-31
rhumerus -27.4985 52.3956 -85.5376
rradius 106.752 -0 0
rwrist -54.1322 0 0
rhand -8.08702 -23.991 0.257564
rfingers 7.12502 -0 0
rthumb 17.8045 -52.8584 0.317699
2652
root -2.31798 15.0966 -28.459 165.316 -72.3243 -170.205
lfemur -35.7638 27.7167 -3.02635
ltibia 55.6862 -0 0
lfoot 13.398 12.4399 -0.181008
ltoes 1.60888 -0 0
rfemur -33.36 -20.6305 20.1206
rtibia 70.7179 -0 0
rfoot -23.9214 -12.1396 -0.0582264
rtoes -6.39334 0 0
lowerback 16.2525 4.40103 1.22103
upperback -0.875839 6.17851 1.15663
thorax -9.81962 2.90599 -0.862389
lowerneck -2.86005 8.35643 1.21403
upperneck 6.93182 10.9563 1.5353
head 2.80497 5.52562 0.694711
lclavicle -6.25156e-14 -1.01034e-14 -2.2508e-31
lhumerus 14.6899 -21.1438 75.834
lradius 114.277 -0 0
lwrist -3.08877 0 0
lhand -37.2437 31.7381 0.485999
lfingers 7.12502 -0 0
lthumb -10.3062 61.3514 0.482288
rclavicle -6.25156e-14 -1.01034e-14 -2.2508e-31
rhumerus -29.0961 53.1724 -86.8084
rradius 107.847 -0 0
rwrist -57.5995 0 0
rhand -7.2657 -23.8008 0.240144
rfingers 7.12502 -0 0
rthumb 18.5958 -52.6149 0.296213
2653
root -2.46814 15.0972 -28.423 166.398 -70.7503 -171.468
lfemur -35.8905 28.0552 -2.83829
ltibia 54.042 -0 0
lfoot 14.385 12.3288 -0.16635
ltoes 2.6652 -0 0
rfemur -32.8774 -20.2994 19.9025
rtibia 70.8037 -0 0
rfoot -24.2738 -12.0394 -0.0535288
rtoes -6.46518 0 0
lowerback 16.2157 4.58526 1.42344
upperback -0.881903 6.45318 1.06796
thorax -9.78861 3.02463 -1.13926
lowerneck -2.81027 8.61895 1.42104
upperneck 7.09037 11.3069 1.38276
head 2.86101 5.6986 0.62482
lclavicle -6.43252e-14 -1.01788e-14 -2.06933e-31
lhumerus 13.1065 -19.0254 76.3427
lradius 113.883 -0 0
lwrist -5.19604 0 0
lhand -37.7589 31.1662 0.446713
lfingers 7.12502 -0 0
lthumb -10.8035 60.7634 0.443302
rclavicle -6.43252e-14 -1.01788e-14 -2.06933e-31
rhumerus -30.6947 53.902 -88.0927
rradius 108.905 -0 0
rwrist -60.9495 0 0
rhand -6.47224 -23.6174 0.220725
rfingers 7.12502 -0 0
rthumb 19.3602 -52.38 0.272264
2654
root -2.61223 15.0978 -28.3885 167.27 -69.2335 -172.514
lfemur -36.0113 28.3804 -2.65808
ltibia 52.4642 -0 0
lfoot 15.3321 12.2224 -0.150488
ltoes 3.67883 -0 0
rfemur -32.4165 -19.9799 19.6965
rtibia 70.8861 -0 0
rfoot -24.6119 -11.9432 -0.0484416
rtoes -6.53412 0 0
lowerback 16.181 4.76215 1.61762
upperback -0.888126 6.71674 0.982798
thorax -9.75938 3.13862 -1.40491
lowerneck -2.76157 8.87069 1.62003
upperneck 7.24181 11.6437 1.23714
head 2.91459 5.86466 0.557895
lclavicle -6.60617e-14 -1.02513e-14 -1.87279e-31
lhumerus 11.6236 -16.981 76.7673
lradius 113.505 -0 0
lwrist -7.21815 0 0
lhand -38.2529 30.6178 0.404183
lfingers 7.12502 -0 0
lthumb -11.2802 60.1995 0.401096
rclavicle -6.60617e-14 -1.02513e-14 -1.87279e-31
rhumerus -32.2813 54.5814 -89.3788
rradius 109.919 -0 0
rwrist -64.1641 0 0
rhand -5.7109 -23.4416 0.199705
rfingers 7.12502 -0 0
rthumb 20.0936 -52.1549 0.246338
2655
root -2.74944 15.0984 -28.3556 167.979 -67.7846 -173.39
lfemur -36.1256 28.6904 -2.48668
ltibia 50.9617 -0 0
lfoot 16.234 12.1214 -0.13375
ltoes 4.64408 -0 0
rfemur -31.9797 -19.6744 19.5032
rtibia 70.9646 -0 0
rfoot -24.9338 -11.8516 -0.0430698
rtoes -6.59977 0 0
lowerback 16.1485 4.93071 1.80247
upperback -0.894423 6.9677 0.901632
thorax -9.73204 3.24729 -1.65785
lowerneck -2.71433 9.11025 1.80985
upperneck 7.38537 11.9648 1.09915
head 2.96546 6.02285 0.49429
lclavicle -6.77152e-14 -1.03202e-14 -1.66522e-31
lhumerus 10.2401 -15.0253 77.1166
lradius 113.144 -0 0
lwrist -9.14374 0 0
lhand -38.7229 30.0959 0.359292
lfingers 7.12502 -0 0
lthumb -11.7338 59.6628 0.356547
rclavicle -6.77152e-14 -1.03202e-14 -1.66522e-31
rhumerus -33.8413 55.2085 -90.6538
rradius 110.886 -0 0
rwrist -67.2253 0 0
rhand -4.98597 -23.2745 0.177519
rfingers 7.12502 -0 0
rthumb 20.7919 -51.9409 0.218973
2656
root -2.87896 15.099 -28.3245 168.56 -66.4136 -174.129
lfemur -36.2329 28.9834 -2.325
ltibia 49.5434 -0 0
lfoot 17.0853 12.0263 -0.116493
ltoes 5.55526 -0 0
rfemur -31.5691 -19.3847 19.3233
rtibia 71.0387 -0 0
rfoot -25.2377 -11.7652 -0.0375272
rtoes -6.66174 0 0
lowerback 16.1184 5.08992 1.97692
upperback -0.900699 7.2046 0.824948
thorax -9.70667 3.34998 -1.89659
lowerneck -2.66898 9.33624 1.98934
upperneck 7.52038 12.2683 0.969449
head 3.01332 6.17223 0.434362
lclavicle -6.92762e-14 -1.03853e-14 -1.45101e-31
lhumerus 8.95628 -13.1722 77.399
lradius 112.804 -0 0
lwrist -10.9615 0 0
lhand -39.1662 29.6036 0.31299
lfingers 7.12502 -0 0
lthumb -12.1616 59.1566 0.310599
rclavicle -6.92762e-14 -1.03853e-14 -1.45101e-31
rhumerus -35.3589 55.7817 -91.9032
rradius 111.798 -0 0
rwrist -70.115 0 0
rhand -4.30171 -23.117 0.154637
rfingers 7.12502 -0 0
rthumb 21.451 -51.7392 0.19075
2657
root -2.99999 15.0995 -28.2955 169.037 -65.13 -174.754
lfemur -36.3325 29.2572 -2.17414
ltibia 48.2182 -0 0
lfoot 17.8807 11.9376 -0.0990915
ltoes 6.40667 -0 0
rfemur -31.187 -19.1129 19.1576
rtibia 71.1079 -0 0
rfoot -25.5216 -11.6845 -0.0319341
rtoes -6.71964 0 0
lowerback 16.0906 5.23877 2.13988
upperback -0.906855 7.42595 0.753233
thorax -9.68335 3.44603 -2.11966
lowerneck -2.62593 9.54728 2.15732
upperneck 7.64598 12.552 0.848832
head 3.05792 6.31185 0.378462
lclavicle -7.07347e-14 -1.04462e-14 -1.23483e-31
lhumerus 7.77326 -11.4356 77.6227
lradius 112.487 -0 0
lwrist -12.66 0 0
lhand -39.58 29.1439 0.266285
lfingers 7.12502 -0 0
lthumb -12.5609 58.6839 0.264251
rclavicle -7.07347e-14 -1.04462e-14 -1.23483e-31
rhumerus -36.8173 56.3 -93.1116
rradius 112.65 -0 0
rwrist -72.8151 0 0
rhand -3.66239 -22.9701 0.131558
rfingers 7.12502 -0 0
rthumb 22.0667 -51.551 0.162283
2658
root -3.11172 15.1 -28.2688 169.43 -63.9434 -175.285
lfemur -36.4239 29.5103 -2.03501
ltibia 46.9948 -0 0
lfoot 18.615 11.856 -0.0819372
ltoes 7.19263 -0 0
rfemur -30.8355 -18.8611 19.0065
rtibia 71.1718 -0 0
rfoot -25.7837 -11.6101 -0.0264161
rtoes -6.77309 0 0
lowerback 16.0654 5.37624 2.29029
upperback -0.912788 7.63028 0.686978
thorax -9.66215 3.53478 -2.32556
lowerneck -2.5856 9.74199 2.31263
upperneck 7.7615 12.8142 0.737936
head 3.09897 6.44078 0.326945
lclavicle -7.20811e-14 -1.05023e-14 -1.02152e-31
lhumerus 6.69329 -9.82875 77.7958
lradius 112.193 -0 0
lwrist -14.2279 0 0
lhand -39.9617 28.7198 0.220219
lfingers 7.12502 -0 0
lthumb -12.9293 58.2477 0.218537
rclavicle -7.20811e-14 -1.05023e-14 -1.02152e-31
rhumerus -38.1984 56.7628 -94.2627
rradius 113.437 -0 0
rwrist -75.3076 0 0
rhand -3.07216 -22.8347 0.108795
rfingers 7.12502 -0 0
rthumb 22.6352 -51.3775 0.134205
2659
root -3.21333 15.1004 -28.2444 169.752 -62.863 -175.733
lfemur -36.5067 29.7405 -1.90857
ltibia 45.8821 -0 0
lfoot 19.2827 11.782 -0.0654288
ltoes 7.90743 -0 0
rfemur -30.5169 -18.6312 18.8706
rtibia 71.2299 -0 0
rfoot -26.0221 -11.5424 -0.0211019
rtoes -6.82171 0 0
lowerback 16.0427 5.50133 2.42707
upperback -0.918395 7.8161 0.626675
thorax -9.64315 3.61555 -2.51281
lowerneck -2.54845 9.91897 2.45407
upperneck 7.86622 13.0528 0.63745
head 3.13622 6.55807 0.28016
lclavicle -7.33057e-14 -1.05534e-14 -8.16064e-32
lhumerus 5.71957 -8.36486 77.9259
lradius 111.926 -0 0
lwrist -15.6538 0 0
lhand -40.3085 28.3344 0.175881
lfingers 7.12502 -0 0
lthumb -13.2639 57.8514 0.174538
rclavicle -7.33057e-14 -1.05534e-14 -8.16064e-32
rhumerus -39.4839 57.1701 -95.3394
rradius 114.153 -0 0
rwrist -77.5746 0 0
rhand -2.53555 -22.7118 0.0868879
rfingers 7.12502 -0 0
rthumb 23.152 -51.22 0.107183
2660
root -3.30402 15.1008 -28.2227 170.015 -61.8977 -176.109
lfemur -36.5802 29.9462 -1.79581
ltibia 44.8891 -0 0
lfoot 19.8788 11.7161 -0.0499651
ltoes 8.54551 -0 0
rfemur -30.2334 -18.4256 18.7507
rtibia 71.2817 -0 0
rfoot -26.2349 -11.482 -0.0161211
rtoes -6.8651 0 0
lowerback 16.0227 5.61301 2.54912
upperback -0.923567 7.98194 0.572815
thorax -9.62641 3.6877 -2.67992
lowerneck -2.51489 10.0769 2.58048
upperneck 7.9594 13.266 0.548061
head 3.16938 6.66275 0.238469
lclavicle -7.43986e-14 -1.0599e-14 -6.23474e-32
lhumerus 4.8562 -7.05666 78.0205
lradius 111.688 -0 0
lwrist -16.9265 0 0
lhand -40.6177 27.9907 0.134342
lfingers 7.12502 -0 0
lthumb -13.5623 57.4979 0.133316
rclavicle -7.43986e-14 -1.0599e-14 -6.23474e-32
rhumerus -40.655 57.5224 -96.3246
rradius 114.792 -0 0
rwrist -79.5978 0 0
rhand -2.05667 -22.6023 0.0663648
rfingers 7.12502 -0 0
rthumb 23.6131 -51.0797 0.0818668
